# xmcd
#
# Track frame offsets:
#	150
#	12093
#	24273
#	40055
#	53653
#	69901
#	80852
#	90122
#	103136
#	115380
#	128374
#	141290
#
# Disc length: 2086 seconds
#
# Revision: 1
# Processed by: cddbd v1.5.2PL0 Copyright (c) Steve Scherf et al.
# Submitted via: FairStars CD Ripper 2.00
#
DISCID=8c08240c
DTITLE=Various Artist - Best Of Country Favourites [CD2]
DYEAR=2010
DGENRE=Country
TTITLE0=Len Greenwood - God Bless The USA
TTITLE1=Alabama - Loving You Is Killing Me
TTITLE2=Tanya Tucker - Soon
TTITLE3=Lacy J. Dalton - 16th Avenue
TTITLE4=Pam Tillis - Don't Tell Me What To Do
TTITLE5=Mickey Gilley - You Don't Know Me
TTITLE6=Merle Haggard - Today I Started Loving You Again
TTITLE7=Janie Fricke - She's Single Again
TTITLE8=Exile - I Could Get Used To You
TTITLE9=T. Graham Brown - I Tell It Like It Used To Be
TTITLE10=Freddie Fender - Wasted Days And Wasted Nights
TTITLE11=Asleep At The Wheel - Miles And Miles Of Texas
EXTD=YEAR: 2010
EXTT0=
EXTT1=
EXTT2=
EXTT3=
EXTT4=
EXTT5=
EXTT6=
EXTT7=
EXTT8=
EXTT9=
EXTT10=
EXTT11=
PLAYORDER=
